<svg xmlns="http://www.w3.org/2000/svg" xmlns:xlink="http://www.w3.org/1999/xlink" viewbox="0 0 120 120" width="120" height="120" stroke="currentColor" fill="currentColor"><path d="M25 15H15v10h10V15z m20 0H35v10h10V15zM35 95h10v10H35v-10zM25 35H15v10h10V35z m70 0h10v10h-10V35zM25 55H15v10h10v-10z m70 0h10v10h-10v-10zM25 75H15v10h10v-10z m70 0h10v10h-10v-10zM25 95H15v10h10v-10z m30-80h10v10h-10V15z m10 80h-10v10h10v-10z m10-80h10v10h-10V15z m10 80h-10v10h10v-10z m10-80h10v10h-10V15z m10 80h-10v10h10v-10z"  /></svg>