<svg width="772" height="337" viewBox="0 0 772 337" fill="none" xmlns="http://www.w3.org/2000/svg">
<path d="M638.431 1.69826C635.976 3.18936 624.545 11.2091 619.151 15.2794C617.018 16.8914 617.018 16.8108 619.634 13.1032C621.486 10.4434 623.78 5.88946 623.78 4.84166C623.78 4.47896 623.418 3.87446 623.015 3.51176C622.291 2.82666 622.13 2.82666 620.48 3.59236C617.622 4.92226 612.43 9.43586 602.367 19.3497C597.094 24.5484 592.788 28.6993 592.788 28.6187C592.788 28.5381 593.15 27.1679 593.593 25.6365C594.478 22.5737 594.639 19.39 593.995 18.1407C592.949 16.2466 589.97 17.6974 585.865 22.1707C580.069 28.4575 565.458 47.7612 563.727 51.4688C562.479 54.0883 561.393 58.5616 561.393 61.0199C561.393 63.6394 562.6 68.6366 563.928 71.377C565.619 74.8831 570.288 79.5579 573.87 81.3311C581.437 85.1193 586.75 84.7969 602.407 79.5982C611.745 76.5354 619.634 72.6263 623.176 69.3217C625.793 66.8634 626.356 65.6544 625.149 65.1708C624.062 64.7678 620.842 64.8887 616.978 65.5738C614.925 65.9365 613.194 66.138 613.074 66.0574C612.993 65.9365 614.482 64.8081 616.414 63.4782C628.449 55.2973 636.66 47.9627 636.66 45.3835C636.66 43.8118 635.573 43.0461 633.561 43.2879C632.595 43.3685 631.83 43.4491 631.911 43.3685C644.308 33.2129 647.93 29.7068 647.93 27.8933C647.93 26.4828 647.326 25.9589 645.636 25.7574L644.348 25.6365L648.574 20.3975C653.968 13.7077 658.274 7.34026 658.637 5.44616C659.16 2.50426 657.067 2.26246 650.667 4.43866C648.816 5.08346 645.596 6.37306 643.503 7.29996C641.41 8.22686 639.035 9.27466 638.27 9.59706L636.861 10.2016L637.666 9.27466C638.109 8.75076 639.397 7.29996 640.484 6.09096C643.623 2.70576 644.348 0.0459519 642.174 0.0459519C641.651 0.0459519 640.001 0.811657 638.431 1.69826ZM641.249 2.74606C640.886 3.39086 638.753 5.80886 636.539 8.18656C632.917 12.0957 632.192 13.345 633.561 13.345C633.843 13.345 636.741 12.0957 640.081 10.5643C649.782 6.09096 657.188 3.63266 657.188 4.84166C657.188 6.53426 652.68 13.0226 645.193 22.1707C642.657 25.2335 641.208 27.3291 641.45 27.5709C641.651 27.7724 642.496 27.7724 643.583 27.5709C645.555 27.1276 646.32 27.2888 646.32 28.0545C646.32 28.8605 639.035 35.6309 632.313 41.0714C624.827 47.1164 624.223 48.4866 630.019 45.988C632.957 44.7387 635.05 44.4566 635.05 45.2626C635.05 47.5597 626.879 54.5316 613.235 63.8812C610.417 65.8156 608.002 67.5888 607.841 67.8306C607.278 68.7575 608.686 68.7575 612.832 67.8709C615.207 67.3873 618.668 66.8634 620.56 66.7022L623.981 66.4201L622.653 67.8306C618.829 71.8606 607.64 76.8175 593.673 80.646C584.979 83.0237 579.908 82.8222 574.192 79.7594C566.343 75.5682 561.876 66.541 563.365 57.9168C564.25 52.7584 565.136 51.2673 573.266 40.3863C583.691 26.4828 590.292 18.987 592.144 18.987C593.351 18.987 592.949 22.7349 591.178 27.9739C590.292 30.6337 589.568 32.8502 589.568 32.9308C589.568 33.898 592.224 31.5606 600.878 22.8961C611.222 12.6196 617.863 6.65516 620.721 5.20436L622.291 4.39836L622.009 5.56706C621.526 7.54176 618.467 12.4584 615.046 16.8108C613.194 19.1079 611.705 21.1632 611.705 21.3647C611.705 22.5334 613.033 21.8483 618.024 18.0601C629.737 9.27466 640.766 1.65796 641.812 1.65796C641.893 1.65796 641.651 2.14156 641.249 2.74606Z" fill="#E76F51"/>
<path d="M593.391 39.0568C590.614 40.5882 586.187 43.6107 580.31 48.0034C574.273 52.517 571.455 55.0962 571.455 56.144C571.455 58.7232 579.988 71.0147 582.846 72.5461C583.731 73.0297 584.094 72.9894 586.026 72.1028C588.722 70.8132 595.645 65.9369 601.643 61.1009C607.559 56.3052 608.244 55.5798 607.922 54.3305C607.278 51.6707 597.014 37.8881 595.686 37.9284C595.525 37.9284 594.518 38.4523 593.391 39.0568ZM594.398 44.8197C593.673 52.8394 592.788 58.0784 592.023 58.4814C591.178 58.9247 586.509 58.3605 579.988 57.0306C572.622 55.5395 572.864 55.8619 576.969 52.5976C582.725 48.0034 594.357 39.7822 594.679 40.1046C594.72 40.1449 594.599 42.2808 594.398 44.8197ZM599.751 44.6585C602.729 48.6079 606.191 53.6857 605.949 53.8872C605.829 54.0081 595.484 52.4364 595.283 52.2752C595.001 51.9931 596.289 40.7494 596.571 40.7494C596.652 40.7494 598.06 42.5226 599.751 44.6585ZM601.24 54.7738L605.869 55.4992L602.327 58.4814C596.128 63.7204 585.824 70.9744 585.301 70.4505C585.18 70.3699 585.704 67.9922 586.428 65.1712L587.756 60.0934L590.252 60.1337C591.661 60.174 593.029 59.9725 593.351 59.7307C593.673 59.4889 594.116 58.0784 594.398 56.6679C594.961 53.6051 594.478 53.7663 601.24 54.7738ZM580.713 58.7232C583.691 59.3277 586.187 59.8113 586.227 59.8516C586.267 59.8516 585.623 62.3905 584.778 65.4533L583.289 71.0147L581.477 69.0803C579.666 67.1459 576.567 62.7935 574.474 59.1262L573.307 57.1515L574.313 57.3933C574.836 57.5142 577.734 58.1187 580.713 58.7232Z" fill="#E9C46A"/>
<path d="M576.526 74.5203C575.801 75.7293 580.108 77.4219 583.932 77.4219C587.755 77.4219 592.384 75.6487 591.338 74.6009C591.016 74.2785 590.251 74.3591 588.44 74.9636C584.857 76.1726 582.885 76.092 577.653 74.3994C577.17 74.2382 576.646 74.3188 576.526 74.5203Z" fill="black"/>
<path d="M511.362 14.7152C509.269 16.0048 505.767 18.4228 501.822 21.3647L500.454 22.4125L501.782 20.1154C502.587 18.6243 503.03 17.375 502.949 16.6899C502.627 13.6674 499.206 15.9242 489.023 25.9992C486.004 28.9814 484.998 29.7471 485.28 28.9411C485.924 27.2888 485.803 24.7902 485.119 24.226C484.072 23.3394 482.663 24.1454 479.886 27.1276C476.425 30.8755 467.771 42.4013 466.644 44.779C465.436 47.3985 465.436 53.0808 466.684 55.7406C467.892 58.4004 470.91 61.5035 473.607 62.7931C475.579 63.8006 476.304 63.9215 479.484 63.8812C482.462 63.8409 483.951 63.5588 487.936 62.3498C490.593 61.5035 494.577 59.9721 496.831 58.9243C504.881 55.0555 506.894 51.1464 500.172 52.3554C498.965 52.5972 497.958 52.7181 497.918 52.6778C497.838 52.6375 499.287 51.5091 501.098 50.2195C509.671 44.0536 512.529 40.5072 509.832 39.2982C509.148 38.9758 509.269 38.7743 511.241 37.1623C512.489 36.1951 514.461 34.3413 515.709 33.0517C517.6 31.077 517.882 30.5531 517.56 29.9083C517.319 29.5053 516.876 29.062 516.514 28.9008C516.031 28.7396 516.634 27.7724 519.13 24.5887C522.712 20.1154 524.081 17.778 523.879 16.4481C523.759 15.6421 523.557 15.5615 521.666 15.6421C520.418 15.6824 518.083 16.2869 515.91 17.1735C513.857 17.9392 512.126 18.584 512.006 18.584C511.885 18.584 512.448 17.8586 513.253 16.9317C514.702 15.36 515.065 13.7883 514.099 13.4659C513.857 13.3853 512.609 13.9495 511.362 14.7152ZM509.591 18.5437C505.646 22.211 506.169 22.8961 511.321 20.6393C515.829 18.7049 521.827 16.7302 522.189 17.0929C522.591 17.4556 520.297 20.8005 516.393 25.6365C514.582 27.853 513.092 29.9083 513.092 30.2307C513.092 30.6337 513.455 30.7143 514.501 30.5531C515.266 30.4322 515.91 30.4725 515.91 30.674C515.91 31.1173 512.046 34.6234 507.779 38.0892C505.646 39.7415 504.237 41.1923 504.237 41.6356C504.237 42.5625 504.559 42.5625 506.693 41.555C512.569 38.8952 507.618 43.8521 497.274 51.0255C495.06 52.5569 493.169 54.048 493.088 54.2898C492.847 55.0958 493.933 55.2167 496.429 54.6525C497.717 54.3704 499.609 54.0077 500.575 53.8868C502.144 53.645 502.305 53.6853 501.822 54.2495C500.333 56.0227 493.128 59.2064 485.763 61.302C482.019 62.3901 480.691 62.5916 478.518 62.4304C474.01 62.108 470.588 59.8109 468.334 55.5391C467.006 53.0808 467.006 47.3582 468.294 44.8999C470.226 41.2729 481.255 27.2888 483.146 26.0395C484.072 25.435 484.112 25.435 484.112 26.6037C484.112 27.2888 483.67 29.0217 483.146 30.5128C481.496 35.0667 482.422 35.0667 486.769 30.5934C494.537 22.614 500.776 16.972 501.299 17.4959C501.581 17.8183 499.126 21.6468 496.952 24.2663C496.067 25.3141 495.382 26.3216 495.382 26.5634C495.382 27.45 496.55 27.3291 497.838 26.2813C499.689 24.7096 511.643 16.166 511.885 16.2063C512.006 16.2063 510.959 17.2541 509.591 18.5437Z" fill="#E76F51"/>
<path d="M481.013 38.5732C476.062 41.9181 469.743 46.8347 469.461 47.5198C468.737 49.293 476.223 59.6904 478.236 59.6904C479.685 59.6904 493.732 49.293 494.296 47.8019C494.658 46.9556 494.014 45.7869 491.156 41.7569C488.298 37.7269 486.568 35.9134 485.642 35.9134C485.28 35.9134 483.187 37.1224 481.013 38.5732ZM484.515 39.621C484.354 40.3464 483.79 42.5629 483.267 44.5376L482.341 48.1243L478.518 47.8825C476.384 47.7213 474.13 47.4795 473.486 47.278L472.279 46.9556L475.499 44.5376C479.443 41.5151 484.112 38.3314 484.515 38.3314C484.716 38.3314 484.716 38.9359 484.515 39.621ZM490.432 43.4495C491.76 45.4242 492.565 46.9959 492.444 47.3586C492.001 48.5273 479.202 58.0784 478.075 58.0784C477.552 58.0784 474.694 54.4917 472.883 51.5095C471.997 50.0184 471.232 48.7288 471.232 48.6482C471.232 48.5676 472.078 48.6885 473.164 48.89C474.211 49.0915 476.867 49.293 479.081 49.3333L483.106 49.4139L483.831 47.9228C484.233 47.1168 484.958 44.6182 485.4 42.3614L486.286 38.3314L487.212 39.218C487.775 39.7419 489.184 41.636 490.432 43.4495Z" fill="#E9C46A"/>
<path d="M19.1845 19.1888C12.2212 20.8814 6.26423 25.6771 2.96373 32.2057C0.50848 37.082 -0.33677 44.1748 0.87073 49.4138C1.39398 51.5094 23.5717 104.907 24.2157 105.552C24.3767 105.673 24.6987 105.511 25.0207 105.189C25.3025 104.867 30.5752 92.696 36.6932 78.1074C48.1645 50.8646 49.0097 48.4063 49.0097 43.4494C49.0097 40.0642 47.923 35.9536 46.152 32.2863C41.2012 22.2113 29.73 16.6499 19.1845 19.1888ZM28.603 31.7221C31.1387 32.5684 34.238 35.4297 35.5662 38.2104C37.78 42.6837 36.8542 48.5272 33.3525 52.5572C29.086 57.3932 20.9957 57.5141 16.1255 52.7587C13.1872 49.8571 11.6577 44.4569 12.7445 40.5478C13.8312 36.5581 17.494 32.5281 20.9957 31.5206C23.0082 30.9161 26.5905 31.037 28.603 31.7221Z" fill="#E76F51"/>
<path d="M741.511 36.7194C736.52 39.3389 725.21 47.1571 710.358 58.159C705.648 61.7054 701.704 64.5264 701.664 64.4458C701.583 64.3652 702.388 63.1965 703.435 61.8263C708.224 55.6604 713.095 47.4392 713.739 44.457C713.9 43.651 713.819 42.6435 713.537 41.9181C713.095 40.9106 712.813 40.7494 711.525 40.7494C707.701 40.7494 698.564 48.487 676.628 70.3296C669.021 77.8657 662.822 83.951 662.822 83.8301C662.822 83.7092 663.265 82.2584 663.869 80.6061C668.296 67.6295 666.807 60.8188 660.407 64.9294C655.135 68.3146 643.18 82.5002 627.362 104.222C625.269 107.083 622.613 110.63 621.445 112.04C618.91 115.224 616.535 119.939 615.086 124.775C614.08 128.039 613.999 129.006 613.999 134.447C613.999 141.781 614.724 144.965 617.742 150.97C623.257 161.972 633.641 169.306 646.078 170.918C651.794 171.684 656.584 170.999 667.854 167.856C691.118 161.287 707.258 153.912 714.544 146.497C717.321 143.716 717.844 142.305 716.395 141.499C714.705 140.613 707.339 141.298 698.283 143.152C696.19 143.555 694.419 143.877 694.378 143.796C694.298 143.716 696.431 142.144 699.168 140.29C716.315 128.563 729.235 118.085 733.099 112.846C734.91 110.388 735.272 108.252 734.186 106.882C733.501 106.076 733.059 105.914 731.368 105.955C730.241 105.955 728.309 106.317 727.061 106.761C725.814 107.164 724.848 107.486 724.888 107.446C724.968 107.406 728.229 104.705 732.173 101.481C746.945 89.3915 753.385 83.0241 753.385 80.4046C753.385 78.309 751.775 77.3015 748.837 77.5433L746.502 77.7448L748.273 75.6895C761.717 59.7307 771.095 46.3108 771.095 42.9256C771.095 38.3314 760.026 41.0315 733.059 52.2752C732.817 52.3961 735.111 49.9781 738.13 46.9153C744.087 40.8703 745.858 38.4926 745.657 36.8C745.496 35.2686 744.329 35.2283 741.511 36.7194ZM743.443 38.7747C742.276 40.7494 737.406 45.8272 732.093 50.5826C727.504 54.6932 726.417 56.0634 727.826 56.0634C728.148 56.0634 731.529 54.7335 735.353 53.0812C750.728 46.5526 761.515 42.8853 766.587 42.4823C768.398 42.3211 769.485 42.4017 769.485 42.6435C769.485 45.9884 761.395 57.5545 747.025 74.7626C743.524 78.9941 743.363 79.1956 743.483 80.9285C743.564 82.7017 744.127 83.4674 745.375 83.4674C746.744 83.4674 747.508 81.3718 746.462 80.324C745.697 79.5583 746.341 79.3165 749.038 79.2762C751.533 79.2359 751.574 79.2359 751.694 80.4046C751.815 81.4121 751.211 82.1778 746.663 86.6511C741.914 91.3662 733.099 98.9425 723.6 106.519C719.011 110.146 718.488 110.75 719.092 111.355C719.414 111.677 720.46 111.395 723.077 110.186C729.798 107.043 733.26 106.559 733.26 108.695C733.26 110.025 732.696 111.033 730.603 113.531C726.176 118.77 710.72 130.78 694.338 141.701C689.267 145.086 688.019 146.335 689.75 146.335C690.192 146.335 692.688 145.852 695.304 145.288C705.004 143.192 715.55 142.023 715.55 143.031C715.55 143.756 710.358 148.35 707.299 150.365C699.168 155.685 684.718 161.488 666.968 166.485C655.255 169.79 651.23 170.274 644.509 169.105C637.586 167.896 631.669 164.914 626.517 160.078C622.814 156.612 620.681 153.63 618.547 148.995C616.092 143.676 615.529 140.975 615.569 134.245C615.609 129.127 615.73 127.959 616.696 124.775C618.064 120.342 620.359 115.788 622.975 112.564C624.062 111.234 627.523 106.6 630.663 102.328C645.193 82.5002 657.389 68.234 661.736 65.9369C663.949 64.7682 664.593 65.3324 664.754 68.5564C664.915 71.5789 663.587 77.0597 661.212 83.3868C659.522 87.8601 659.321 88.7064 660.005 88.7064C660.246 88.7064 667.008 82.1375 675.018 74.0775C696.27 52.7588 707.5 42.8853 711.324 42.2808C712.008 42.1599 712.129 42.3614 712.088 43.6107C712.008 46.7541 707.299 54.532 699.651 64.1234C692.728 72.7879 693.654 72.5461 707.822 61.9875C722.835 50.7841 733.179 43.4898 738.694 40.1852C743.725 37.1627 744.53 36.9209 743.443 38.7747Z" fill="#E76F51"/>
<path d="M668.859 98.539C664.593 100.433 654.45 106.075 644.911 111.798C632.111 119.455 626.194 123.726 626.194 125.258C626.194 126.306 628.247 131.101 631.467 137.469C636.418 147.342 641.087 154.395 643.904 156.249C645.152 157.095 645.514 157.135 647.205 156.772C651.27 155.886 666.968 147.06 680.653 137.993C688.662 132.673 691.802 130.094 691.802 128.885C691.802 125.782 676.668 99.9495 673.609 97.7733C672.401 96.9673 672.361 96.9673 668.859 98.539ZM671.516 100.272C671.395 100.917 670.63 104.826 669.866 109.057C667.491 121.55 665.398 130.376 664.19 132.713C663.667 133.721 663.385 133.842 661.695 133.842C658.274 133.842 649.298 131.545 635.291 127.112L628.126 124.815L629.253 123.847C635.251 118.89 668.698 99.345 671.395 99.1838C671.596 99.1838 671.637 99.6674 671.516 100.272ZM675.501 102.569C679.928 108.815 690.353 127.353 689.789 127.958C689.548 128.159 669.342 123.203 668.98 122.8C668.859 122.679 669.584 118.286 670.63 113.007C671.637 107.727 672.603 102.65 672.723 101.682C672.884 100.755 673.126 99.9898 673.327 99.9898C673.488 99.9898 674.494 101.158 675.501 102.569ZM679.485 127.112L689.508 129.651L688.26 130.698C685.805 132.754 673.73 140.693 666.002 145.327C658.757 149.639 649.781 154.395 647.607 154.999C646.762 155.241 646.762 155.201 647.165 154.113C647.406 153.508 649.097 148.833 650.988 143.756C652.84 138.678 654.41 134.446 654.49 134.366C654.571 134.285 655.939 134.487 657.549 134.849C661.614 135.696 663.828 135.655 664.834 134.648C665.559 133.922 667.29 128.965 667.893 125.862C668.054 125.056 668.376 124.573 668.819 124.573C669.181 124.573 673.971 125.741 679.485 127.112ZM632.473 127.797C634.446 128.482 639.759 130.134 644.267 131.464C648.815 132.754 652.558 133.922 652.679 134.003C652.84 134.204 645.555 154.435 645.112 154.919C644.629 155.443 641.087 151.171 638.35 146.738C634.244 140.169 627.643 126.588 628.529 126.588C628.73 126.588 630.461 127.152 632.473 127.797Z" fill="#E9C46A"/>
<path d="M633.52 151.292C632.876 152.058 634.969 155.524 637.304 157.579C641.369 161.166 646.883 162.576 653.243 161.69C656.906 161.126 658.314 160.521 657.791 159.675C657.59 159.312 657.067 159.231 656.221 159.433C650.747 160.602 645.797 160.4 642.134 158.869C639.88 157.861 636.459 154.758 635.412 152.703C634.527 150.93 634.084 150.607 633.52 151.292Z" fill="black"/>
<path d="M450.584 71.8206C438.871 74.6819 429.291 83.83 426.152 95.1946C425.226 98.6604 425.065 99.7888 421.121 132.835L418.102 158.183L412.507 170.314C405.665 185.104 405.021 187.038 405.021 193.889C405.061 199.934 405.745 202.957 408.241 208.196C411.501 214.886 416.17 219.52 423.133 222.905C425.347 223.993 428.446 225.162 430.056 225.484C433.397 226.21 439.837 226.331 443.298 225.686C446.599 225.081 451.389 223.187 454.287 221.293C455.655 220.407 456.742 219.842 456.742 220.004C456.742 220.165 456.38 221.454 455.897 222.905C453.844 229.555 450.906 242.41 450.302 247.488C449.658 253.13 451.067 259.82 454.005 264.737C454.729 265.946 456.541 268.243 457.99 269.774L460.686 272.595L459.922 275.819C458.795 280.454 457.305 288.957 456.782 293.43C456.541 295.526 456.219 297.944 456.138 298.79C455.937 300.322 455.937 300.322 458.151 301.329C459.358 301.893 460.364 302.417 460.364 302.498C460.364 302.578 459.881 303.908 459.318 305.44C457.627 309.994 455.695 311.122 451.509 309.994C448.128 309.107 443.258 309.188 440.964 310.235C435.772 312.573 432.833 317.086 433.88 321.116C434.443 323.373 435.933 324.622 437.623 324.26C440.441 323.696 440.803 323.776 441.527 325.388C442.534 327.403 443.781 327.967 445.874 327.282C447.686 326.678 448.289 326.96 449.094 328.854C449.779 330.506 451.187 331.03 453.2 330.426C454.729 329.982 454.89 329.982 455.494 330.869C457.668 333.972 457.829 334.053 461.049 333.488C462.699 333.247 462.739 333.247 463.464 334.778C464.47 336.914 465.718 337.277 468.575 336.39C469.823 335.987 471.031 335.342 471.232 334.939C471.433 334.536 473.969 328.532 476.786 321.56C479.644 314.628 485.118 301.571 488.942 292.584L495.905 276.222L498.964 275.497C503.19 274.489 511.361 271.709 515.909 269.653C522.591 266.711 531.607 261.311 531.607 260.263C531.607 259.981 531.325 258.893 531.003 257.845C530.56 256.354 530.52 255.871 530.923 255.75C538.409 252.969 539.697 253.291 542.273 258.41C545.574 264.938 550.645 268.082 556.602 267.235C559.379 266.832 560.708 266.067 562.116 264.011C563.485 261.956 563.284 260.666 561.392 259.135C559.822 257.845 559.259 256.314 560.184 255.75C560.748 255.387 560.667 253.009 560.104 252.284C559.822 251.921 559.098 251.357 558.494 250.994C557.206 250.188 557.125 249.544 558.011 247.811C558.856 246.158 558.454 244.788 556.723 243.781C555.193 242.854 555.193 243.015 555.998 239.066C556.24 237.776 556.119 237.574 554.509 236.164L552.738 234.673L553.422 232.819C553.946 231.409 554.026 230.723 553.704 230.038C553.181 228.91 550.041 226.935 548.753 226.935C548.23 226.935 542.152 228.749 535.189 230.925C522.148 235.036 512.81 237.655 512.448 237.333C512.367 237.212 514.259 232.053 516.714 225.887C519.17 219.681 521.786 212.83 522.551 210.614C525.006 203.239 526.213 195.219 525.811 188.932C525.529 184.499 525.288 184.741 529.313 185.386C530.56 185.587 531.325 185.547 531.567 185.265C531.768 185.023 532.251 182.162 532.613 178.857C533.217 174.021 533.458 172.933 533.982 172.933C534.344 172.933 538.127 173.296 542.354 173.82C546.62 174.303 550.202 174.586 550.323 174.465C550.484 174.344 551.651 165.196 552.939 154.153C554.268 143.071 555.837 130.135 556.401 125.379C557.568 116.191 557.769 111.315 557.246 107.567L556.924 105.229L569.321 112.685L581.718 120.1L582.523 119.092C583.65 117.682 594.397 99.4664 594.397 98.9828C594.397 98.4992 551.651 72.9893 550.846 72.9893C550.565 72.9893 548.834 75.4879 546.982 78.5104C545.171 81.5732 543.521 84.3136 543.32 84.636C543.038 85.0793 542.515 84.9181 540.623 83.7494C537.403 81.815 533.982 80.4448 529.957 79.4373C528.105 78.994 512.086 76.8984 494.376 74.8028C459.479 70.6519 456.178 70.4101 450.584 71.8206ZM465.597 73.1908C468.656 73.9162 471.634 75.0043 471.634 75.367C471.634 75.5282 470.95 75.8909 470.145 76.173C467.851 76.979 463.544 79.5985 460.847 81.8553C456.138 85.8047 451.831 92.6557 450.262 98.7007C449.819 100.434 448.531 110.75 447.283 122.518C445.15 142.144 444.989 143.434 443.902 145.731C442.695 148.27 440.964 150.244 438.589 151.856C437.663 152.461 434.041 153.589 428.527 155C423.817 156.209 419.913 157.136 419.873 157.095C419.873 157.055 421.402 143.756 423.375 127.596C427.198 95.4767 427.359 94.6304 430.62 88.7063C431.787 86.5704 433.437 84.5554 436.174 81.8553C439.394 78.6313 440.642 77.7044 443.862 76.0924C445.955 75.0446 449.054 73.8356 450.704 73.3923C454.528 72.4251 461.854 72.3445 465.597 73.1908ZM500.896 77.2208C528.508 80.5254 529.152 80.606 533.74 82.2583C537.041 83.4673 541.669 86.0868 541.669 86.7316C541.669 86.9734 536.115 96.4842 529.353 107.849C517.439 127.918 516.996 128.603 515.547 129.006C510.395 130.376 507.095 134.971 507.054 140.734C507.054 143.192 507.256 144.159 508.101 145.811C511.643 152.985 520.941 154.798 526.978 149.519C529.152 147.585 530.802 143.917 530.802 140.975C530.802 139.686 530.601 137.872 530.359 136.945L529.957 135.253L539.858 118.528C545.332 109.34 549.88 101.723 549.921 101.643C550.001 101.562 551.088 102.086 552.336 102.811C554.952 104.302 555.234 104.867 555.837 109.541C556.24 112.604 556.039 114.821 552.698 142.789C550.766 159.272 549.116 172.772 549.075 172.853C548.955 173.054 486.366 165.558 486.044 165.317C485.923 165.196 487.292 152.38 489.143 136.865C492.967 105.189 493.128 102.328 491.598 96.2827C489.264 87.1346 484.192 80.5254 475.015 74.7222C474.371 74.3192 474.331 74.2386 474.935 74.2386C475.297 74.1983 486.97 75.5685 500.896 77.2208ZM574.272 88.5048C583.892 94.2274 591.942 99.0231 592.103 99.1843C592.304 99.3455 589.969 103.658 586.951 108.776L581.477 118.045L566.302 108.977C557.971 104.02 551.088 99.9097 551.048 99.8694C551.007 99.7888 551.893 98.1365 552.98 96.1618C554.066 94.1871 554.912 92.293 554.871 91.9706C554.59 90.6004 553.583 91.487 551.812 94.5498C550.806 96.323 545.05 106.156 538.973 116.433L527.904 135.132L528.588 137.671C529.675 141.66 528.789 145.046 525.932 147.867C523.839 149.922 522.108 150.567 518.727 150.567C516.191 150.567 515.426 150.406 513.857 149.479C509.268 146.779 507.417 141.137 509.63 136.462C510.878 133.762 513.333 131.626 516.03 130.82L518.204 130.175L534.666 102.489L551.128 74.7625L553.946 76.4148C555.515 77.3417 564.652 82.7822 574.272 88.5048ZM452.475 163.261C469.3 165.276 483.106 166.969 483.186 167.049C483.267 167.09 478.879 176.721 473.486 188.408C462.618 211.903 461.532 213.717 456.259 217.908C450.503 222.381 444.345 224.517 437.06 224.517C428.849 224.517 422.006 221.817 416.17 216.336C407.919 208.518 404.457 196.106 407.637 185.628C408.12 184.056 410.978 177.487 413.956 170.999L419.43 159.231L420.678 159.433C421.362 159.554 435.691 161.287 452.475 163.261ZM488.942 167.452C494.899 168.097 531.768 172.571 531.889 172.651C532.05 172.812 530.56 183.774 530.359 183.975C530.118 184.177 481.013 177.608 480.731 177.326C480.57 177.205 481.576 174.787 482.904 171.966C484.836 167.815 485.44 166.848 486.004 167.009C486.406 167.13 487.734 167.332 488.942 167.452ZM480.087 185.426C484.233 186.434 483.991 186.152 484.233 191.189C484.353 193.688 484.555 196.307 484.716 197.073C484.877 197.96 484.836 198.322 484.555 198.121C484.313 198 484.112 198.08 484.112 198.322C484.112 198.564 484.434 198.685 484.836 198.564C485.4 198.363 485.883 198.725 486.607 199.773L487.654 201.224L484.836 207.108C483.267 210.332 480.691 216.054 479.081 219.802C477.471 223.55 475.981 226.734 475.82 226.855C475.659 227.016 475.659 226.855 475.861 226.532C476.062 226.21 476.022 226.049 475.861 226.25C475.659 226.411 475.458 226.935 475.378 227.419C475.297 227.902 474.613 229.917 473.888 231.932C469.541 243.579 468.253 247.246 465.919 254.541C464.47 258.974 462.779 264.455 462.176 266.752L461.049 270.903L459.479 269.371C456.983 266.953 454.005 262.117 452.838 258.571C451.912 255.79 451.751 254.662 451.791 250.511C451.791 245.473 452.234 243.015 455.172 231.167C457.909 220.286 458.714 218.029 460.566 216.054C463.745 212.75 465.355 209.848 471.192 197.194C475.7 187.482 477.149 184.661 477.632 184.781C477.994 184.902 479.081 185.184 480.087 185.426ZM488.338 187.602L490.351 188.126L490.23 191.713C490.149 195.098 489.304 198.846 488.539 199.33C488.338 199.451 487.614 198.604 486.929 197.436C485.802 195.421 485.722 195.018 485.722 191.149C485.722 188.892 485.843 187.038 486.044 187.038C486.205 187.038 487.251 187.28 488.338 187.602ZM499.206 190.464C502.305 191.27 506.209 192.277 507.859 192.68C509.51 193.083 511.683 193.688 512.689 194.01C513.696 194.292 516.634 195.098 519.25 195.743L523.959 196.912V198.121C523.959 199.733 522.269 207.148 521.142 210.412C517.962 219.641 490.27 286.7 481.294 306.81L480.449 308.704L477.954 307.777C476.585 307.253 475.498 306.649 475.539 306.487C475.579 306.286 475.096 306.084 474.532 306.084C473.929 306.044 470.829 304.956 467.609 303.626C464.389 302.296 460.888 300.845 459.761 300.442L457.748 299.636L457.869 297.42C458.795 277.23 472.319 235.076 487.734 204.367C491.156 197.557 491.759 195.662 491.759 191.753C491.759 188.65 491.8 188.57 492.685 188.731C493.168 188.852 496.106 189.617 499.206 190.464ZM550.967 229.595C552.175 230.361 552.537 230.804 552.336 231.288C551.37 233.585 551.249 234.149 551.49 235.116C551.611 235.721 552.376 236.607 553.141 237.131C554.549 238.018 554.952 239.267 554.107 240.113C553.905 240.315 553.664 241.121 553.664 241.846C553.624 242.934 553.946 243.458 555.314 244.627L557.005 246.078L556.361 247.649C555.475 249.785 555.878 251.397 557.608 252.405C559.098 253.291 559.218 253.775 558.534 255.75C557.85 257.604 558.373 259.095 559.983 260.062C561.593 260.989 561.714 261.593 560.587 263.447C559.057 265.865 553.946 266.55 550.363 264.817C548.673 264.011 545.292 261.069 545.292 260.425C545.292 260.263 546.298 259.82 547.506 259.417C549.357 258.853 549.88 258.49 550.404 257.362C551.007 256.072 550.967 255.83 547.304 243.619C545.252 236.768 543.481 230.965 543.4 230.683C543.199 230.2 546.942 228.588 548.431 228.588C548.914 228.547 550.082 229.031 550.967 229.595ZM523.315 238.824C523.678 240.033 523.879 241.242 523.758 241.443C523.637 241.685 523.678 241.846 523.919 241.846C524.12 241.846 524.402 242.249 524.563 242.733C524.684 243.257 526.012 247.327 527.461 251.841C528.91 256.354 530.037 260.102 529.957 260.183C529.876 260.263 528.186 261.351 526.173 262.601C519.129 267.074 508.664 271.507 500.252 273.683C498.481 274.127 496.952 274.489 496.831 274.489C496.63 274.489 497.435 272.434 499.004 269.049C499.407 268.162 500.292 265.986 501.017 264.213C501.701 262.44 502.788 259.82 503.432 258.369C504.076 256.918 505.163 254.299 505.847 252.526C506.571 250.753 507.537 248.375 508.061 247.287C508.544 246.158 509.469 243.942 510.073 242.33C511.361 239.066 510.677 239.469 518.324 237.454C522.631 236.325 522.51 236.285 523.315 238.824ZM447.082 312.613C446.076 314.87 446.076 316.442 447.001 317.57C447.404 318.054 452.636 320.552 459.559 323.494C466.08 326.275 471.554 328.652 471.675 328.814C471.836 328.975 471.473 330.264 470.87 331.675C469.904 334.053 469.702 334.335 468.092 334.859C465.959 335.544 465.436 335.383 464.591 333.569C463.786 331.836 463.021 331.594 460.244 331.917C458.11 332.199 458.07 332.159 457.587 330.99C456.742 328.975 455.776 328.33 454.045 328.693C451.147 329.217 450.986 329.176 450.221 327.564C449.255 325.549 448.008 324.985 445.834 325.63C443.983 326.194 443.419 325.912 442.654 324.099C442.01 322.487 440.32 321.801 438.509 322.487C436.657 323.131 436.053 322.849 435.45 320.875C435.047 319.424 435.087 318.98 435.731 317.489C437.623 313.218 441.205 310.961 446.357 310.8L447.847 310.759L447.082 312.613Z" fill="#2A9D8F"/>
<path d="M516.433 135.696C511.362 138.195 513.334 145.933 519.009 145.933C524.765 145.933 526.254 138.316 521.062 135.616C519.653 134.89 518.043 134.931 516.433 135.696ZM520.7 137.228C522.954 138.397 523.397 141.338 521.585 143.152C518.365 146.376 513.133 142.064 515.749 138.356C516.876 136.704 518.848 136.261 520.7 137.228Z" fill="#2A9D8F"/>
<path d="M17.2118 115.183C9.32283 115.627 1.99733 116.916 0.950833 118.085C0.347083 118.73 0.347083 118.851 0.991083 119.415C4.41233 122.478 33.3521 123.566 47.2383 121.148C55.0468 119.778 55.0066 117.642 47.1176 116.312C40.2751 115.183 26.7108 114.66 17.2118 115.183Z" fill="#E76F51"/>
<path d="M565.418 173.739V178.575H562.198H558.978V194.856C558.978 205.294 559.139 211.258 559.38 211.419C559.662 211.581 559.783 206.18 559.783 195.541V179.381H571.656H583.53V195.38C583.53 205.455 583.691 211.984 583.973 212.951C584.577 215.208 586.871 217.545 589.125 218.23L590.976 218.754L591.097 238.985C591.137 251.961 591.339 259.175 591.58 259.175C591.862 259.175 591.983 251.961 591.983 238.662V218.149L590.493 217.867C588.199 217.464 585.985 215.852 585.1 213.918C584.416 212.346 584.335 211.057 584.335 195.38V178.575H581.316H578.298V173.739V168.903H571.858H565.418V173.739ZM577.493 174.142V178.575H571.858H566.223V174.142V169.709H571.858H577.493V174.142Z" fill="#E9C46A"/>
<path d="M538.048 198.523V207.994H533.419C530.601 207.994 528.79 208.155 528.79 208.397C528.79 208.639 530.722 208.8 533.821 208.8H538.853V199.329V189.859H548.714C555.033 189.859 558.575 189.698 558.575 189.456C558.575 189.214 554.872 189.053 548.311 189.053H538.048V198.523Z" fill="#E9C46A"/>
<path d="M589.969 194.695C590.291 194.897 594.155 195.098 598.704 195.098H606.874L606.955 214.321L607.076 233.585L612.308 233.706C616.977 233.786 617.702 233.706 618.869 232.98C620.922 231.731 621.364 230.119 621.364 224.316V219.278H633.238H645.112L645.192 231.449L645.313 243.66H649.338H653.363L653.484 219.963L653.564 196.307H661.212H668.859L668.94 214.926L669.061 233.585L675.984 233.706L682.947 233.786L683.027 240.96L683.148 248.093H692.003H700.858L700.939 247.085C700.939 246.521 700.979 242.249 701.019 237.574L701.059 229.111L703.032 228.588C705.688 227.902 708.425 226.129 709.914 224.074C712.007 221.172 712.329 219.278 712.329 209.929V201.546H724.686C733.058 201.546 736.922 201.425 736.64 201.143C736.359 200.861 731.851 200.781 723.962 200.821L711.726 200.942L711.524 210.614C711.323 219.601 711.243 220.407 710.438 221.938C708.667 225.283 705.527 227.54 702.066 228.023L700.254 228.265V237.857V247.488H692.003H683.752L683.671 240.315L683.551 233.182L676.628 233.061L669.664 232.98V214.241V195.501H661.212H652.759V219.278V243.055H649.338H645.917V230.764V218.472H633.238H620.559V224.275C620.559 229.595 620.479 230.119 619.674 231.167C618.225 233.021 616.695 233.424 611.906 233.101L607.679 232.859V213.556V194.292H598.543C592.465 194.292 589.567 194.453 589.969 194.695Z" fill="#E9C46A"/>
<path d="M202.242 235.882C199.706 238.3 197.251 244.586 196.325 251.034L195.842 254.379L194.957 252.928C192.501 248.858 187.953 248.939 186.383 253.09C185.739 254.742 185.739 255.024 186.343 257.321C186.705 258.691 187.108 260.062 187.269 260.424C187.47 260.948 187.148 261.15 185.82 261.351C183.767 261.674 182.318 262.399 181.03 263.809C180.185 264.736 180.024 265.26 180.024 267.436V270.016L178.374 270.66C175.677 271.668 173.101 273.522 172.014 275.174C170.968 276.867 170.283 279.325 170.887 279.325C171.088 279.325 171.37 278.841 171.491 278.197C172.095 275.456 174.55 273.038 178.494 271.426L180.829 270.499L180.708 268.323C180.587 266.872 180.789 265.704 181.191 264.898C181.916 263.527 184.693 261.996 186.504 261.996C188.637 261.996 188.758 261.593 187.631 258.772C186.303 255.508 186.464 253.009 188.074 251.639C190.408 249.584 193.628 251.034 195.037 254.782C195.44 255.911 195.963 256.838 196.164 256.878C196.365 256.918 196.647 255.467 196.808 253.654C197.573 244.465 201.558 235.398 204.818 235.398C206.75 235.398 207.394 236.889 207.354 241.443C207.313 245.513 206.911 248.012 205.341 253.493C204.818 255.387 204.456 256.958 204.536 257.079C204.617 257.16 205.744 256.394 206.991 255.387C211.54 251.679 218.141 249.261 219.871 250.712C221.602 252.163 219.791 255.387 214.397 260.545C212.264 262.6 210.976 264.092 211.298 264.172C211.58 264.293 213.109 264.414 214.639 264.535C219.268 264.817 223.695 267.316 223.695 269.653C223.695 271.386 221.2 273.361 217.054 274.932L215.846 275.376L217.98 276.101C221.522 277.27 223.051 279.406 222.568 282.468L222.407 283.758L224.42 282.71C226.11 281.824 226.754 281.703 228.163 281.944C230.296 282.307 232.55 284.362 232.55 285.934C232.55 287.063 232.792 287.183 233.758 286.579C234.16 286.297 234.241 286.095 233.919 285.854C233.677 285.692 233.154 285.007 232.792 284.282C231.262 281.259 227.881 280.373 224.017 281.944C223.413 282.186 223.293 282.025 223.293 280.897C223.293 278.922 221.924 276.947 220.073 276.182C219.187 275.779 218.463 275.416 218.463 275.295C218.463 275.174 219.268 274.771 220.274 274.368C222.206 273.562 223.937 271.789 224.339 270.257C225.064 267.316 219.308 263.648 213.874 263.608H212.345L215.162 260.988C220.113 256.394 222.488 251.8 220.676 250.309C218.785 248.737 213.794 249.906 209.044 253.049C207.474 254.097 206.066 254.984 205.945 255.064C205.784 255.145 206.025 253.936 206.468 252.445C207.635 248.173 208.481 241.927 208.199 239.388C207.635 234.592 205.14 233.141 202.242 235.882Z" fill="#264653"/>
<path d="M565.417 252.727C565.417 252.969 567.711 253.13 571.454 253.13H577.492V271.87C577.492 284.081 577.613 290.609 577.894 290.609C578.176 290.609 578.297 283.96 578.297 271.467V252.324H571.857C567.832 252.324 565.417 252.486 565.417 252.727Z" fill="#E9C46A"/>
<path d="M646.803 268.162C646.28 270.177 644.227 272.313 642.255 272.877C641.49 273.119 635.613 273.28 629.133 273.28H617.34V286.619C617.34 295.364 617.461 299.838 617.742 299.676C617.984 299.515 618.145 294.679 618.145 286.539V273.643L630.139 273.723C640.926 273.804 642.255 273.764 643.623 273.078C645.434 272.232 647.004 270.298 647.366 268.525L647.648 267.235H669.101H690.595V273.28C690.595 277.028 690.756 279.325 690.997 279.325C691.239 279.325 691.4 276.907 691.4 272.877V266.429H669.303H647.205L646.803 268.162Z" fill="#E9C46A"/>
<path d="M554.671 288.957C552.377 290.407 550.123 295.203 548.955 301.168L548.311 304.674L547.506 303.505C545.655 300.765 542.636 300.402 541.429 302.78C540.785 304.069 540.785 307.535 541.509 309.832C541.751 310.719 541.67 310.759 539.617 310.759C536.397 310.759 533.499 312.25 532.413 314.386C531.93 315.353 531.608 316.603 531.688 317.328C531.809 318.456 531.648 318.618 530.481 318.98C528.508 319.544 526.174 322.003 525.369 324.421C525.007 325.549 524.765 326.798 524.886 327.161C525.087 328.007 525.168 327.766 525.932 324.945C526.576 322.567 528.871 320.109 531.004 319.544L532.654 319.101L532.614 316.965C532.614 315.273 532.815 314.668 533.58 313.822C535.109 312.21 536.88 311.565 540.02 311.565C541.59 311.565 542.878 311.484 542.878 311.404C542.878 311.323 542.596 310.477 542.274 309.55C541.469 307.293 541.509 303.948 542.314 302.78C543.602 300.885 546.138 302.135 547.788 305.439L548.714 307.333L549.036 305.117C550.082 297.903 552.135 292.221 554.429 290.206C556.08 288.715 557.126 288.675 558.012 290.004C559.018 291.576 558.575 298.588 557.166 303.263C556.603 305.198 556.2 306.89 556.281 307.011C556.402 307.092 557.368 306.527 558.454 305.681C562.157 302.86 567.229 300.966 569.402 301.691C570.489 302.014 570.529 303.586 569.402 305.359C568.557 306.769 562.721 312.371 562.117 312.371C561.956 312.371 561.795 312.532 561.795 312.734C561.795 312.895 563.123 313.177 564.774 313.298C567.752 313.499 570.932 314.588 572.341 315.877C574.232 317.57 572.502 320.149 568.638 321.439C567.551 321.801 566.625 322.245 566.625 322.406C566.625 322.567 567.39 322.889 568.356 323.131C571.214 323.897 572.059 324.824 572.059 327.242C572.059 328.451 572.22 329.216 572.461 329.136C572.703 329.096 572.864 328.169 572.824 327.161C572.824 325.066 572.059 323.977 569.885 322.849L568.477 322.164L569.966 321.68C571.978 320.995 573.87 319.061 573.87 317.65C573.87 315.353 570.368 313.258 565.498 312.573L563.405 312.29L565.538 310.558C570.489 306.447 572.3 302.739 570.046 301.248C568.235 300.039 563.405 301.409 559.179 304.311C558.173 304.996 557.368 305.52 557.368 305.439C557.368 305.359 557.81 303.505 558.374 301.329C559.984 294.921 559.622 289.239 557.569 288.433C556.522 288.03 556.039 288.151 554.671 288.957Z" fill="#264653"/>
<path d="M371.964 208.4C375.999 212.152 378.708 222.56 378.812 234.894L378.79 242.128L380.831 240.098C385.546 235.324 391.703 235.728 393.225 240.922C394.029 243.736 392.737 250.649 390.435 254.96C389.623 256.638 389.769 256.749 393.863 257.516C400.286 258.72 405.511 262.777 406.883 267.444C407.486 269.554 407.662 272.166 407.231 273.583C406.569 275.789 406.831 276.17 409.024 277.33C412.747 279.193 416.488 284.969 417.192 290.093C417.494 292.479 417.51 295.061 417.134 295.74C416.417 297.353 416.346 296.84 415.873 290.927C415.474 285.944 411.815 280.183 407.77 278.26L404.643 276.759L405.52 272.513C406.151 269.137 405.975 267.856 404.765 265.882C402.315 262.095 399.022 260.147 392.76 258.973C389.629 258.387 387.09 257.745 387.12 257.584C387.15 257.423 388.027 255.84 389.015 254.112C391.462 249.911 392.629 243.224 391.459 240.591C389.596 236.332 384.072 237.876 379.548 243.851L376.995 247.283L377.179 242.742C377.781 227.961 375.805 215.859 371.98 210.982C369.244 207.391 367.172 206.92 364.909 209.242C362.316 212.001 360.585 226.154 361.652 236.005C362.055 240.074 362.227 243.601 362.021 243.812C361.75 243.928 360.034 242.441 358.182 240.347C351.847 233.336 342.437 227.662 337.831 228.297C335.543 228.534 334.876 231.654 336.463 235.612C337.624 238.742 347.177 252.097 348.381 252.322C348.702 252.383 348.964 252.764 348.888 253.166C348.828 253.488 346.074 253.554 342.737 253.179C336.72 252.467 329.972 253.449 326.681 255.495C322.276 258.164 324.767 263.956 331.994 267.973C334.027 269.102 335.708 270.333 335.648 270.654C335.588 270.976 333.942 271.333 331.925 271.454C325.939 271.914 323.908 273.447 323.006 278.27C322.555 280.682 321.949 282.149 321.497 281.898C321.03 281.727 321.055 279.818 321.511 277.823C322.292 273.643 324.223 271.758 328.979 270.32L332.045 269.48L329.254 267.959C325.495 265.84 322.443 261.274 322.969 258.461C323.825 253.879 331.592 251.007 341.562 251.461L345.842 251.68L342.233 247.426C333.89 237.376 331.659 229.304 336.711 227.172C340.775 225.437 349.899 229.976 357.247 237.343C358.999 239.086 360.409 240.432 360.44 240.271C360.47 240.11 360.278 236.247 359.965 231.695C359.142 218.312 361.983 207.113 366.378 206.272C368.616 205.859 369.535 206.281 371.964 208.4Z" fill="#264653"/>
<path d="M58 127C70.5 117 74.5 108.5 93 122.5C103.5 130.446 104.5 131.79 105.5 145C105.5 150.69 103.5 155 90.9983 161.827C69 169 64.5 167.5 49 167.5C25.5 167.5 13.9363 169.355 13.9363 197.585C13.9363 217.609 30.7792 221.397 37.5 223.5C58 228.5 64.8904 228.39 79 223.5C90.225 219.609 105 208 114 200C138.5 176 143.942 168.893 173.5 178C200.5 186.318 188.377 206 182.001 217.609C175.625 229.219 169.06 234.65 157.5 249C142.999 267 139 269.5 126 279C115 287.5 99 296.913 84.5 304.5C67 313 48.5009 312.087 40.5009 312.087C25.5009 312.087 13.9363 304.5 12.1903 292.065C7.50008 273.153 11.374 262.52 22.0313 254.083C37.5057 241.832 63.314 241.506 81.7127 242.799C92.6952 243.571 118.818 248.313 122.506 261.234C123.926 266.212 125.663 272.483 127.902 276.968C132.77 286.715 142.683 290.669 150.997 296.913C160.987 304.414 178.132 307.572 190 310.5C204 313.953 218.427 315.157 230.5 316.5C248.197 318.469 260.5 321 281 321C298.254 321 327.283 321 344.5 321C353.445 321 398 319.5 412.5 319.5" stroke="#2A9D8F" stroke-width="3" stroke-linecap="round" stroke-dasharray="36 36"/>
</svg>
