<svg width="403" height="337" viewBox="0 0 403 337" fill="none" xmlns="http://www.w3.org/2000/svg">
<path d="M269.431 1.69875C266.975 3.18984 255.544 11.2095 250.151 15.2798C248.018 16.8918 248.018 16.8112 250.634 13.1036C252.485 10.4438 254.78 5.88995 254.78 4.84215C254.78 4.47945 254.417 3.87495 254.015 3.51225C253.29 2.82715 253.129 2.82715 251.479 3.59284C248.621 4.92274 243.429 9.43635 233.367 19.3501C228.094 24.5488 223.787 28.6997 223.787 28.6191C223.787 28.5385 224.149 27.1683 224.592 25.6369C225.478 22.5741 225.639 19.3904 224.995 18.1411C223.948 16.247 220.97 17.6978 216.864 22.1711C211.068 28.4579 196.457 47.7616 194.727 51.4692C193.479 54.0887 192.392 58.562 192.392 61.0203C192.392 63.6398 193.6 68.637 194.928 71.3774C196.618 74.8835 201.287 79.5583 204.87 81.3315C212.437 85.1197 217.75 84.7973 233.407 79.5986C242.745 76.5358 250.634 72.6267 254.176 69.3221C256.792 66.8638 257.356 65.6548 256.148 65.1712C255.061 64.7682 251.841 64.8891 247.977 65.5742C245.925 65.9369 244.194 66.1384 244.073 66.0578C243.993 65.9369 245.482 64.8085 247.414 63.4786C259.449 55.2977 267.66 47.9631 267.66 45.3839C267.66 43.8122 266.573 43.0465 264.56 43.2883C263.594 43.3689 262.83 43.4495 262.91 43.3689C275.307 33.2133 278.93 29.7072 278.93 27.8937C278.93 26.4832 278.326 25.9593 276.635 25.7578L275.347 25.6369L279.574 20.3979C284.967 13.7081 289.274 7.34074 289.636 5.44665C290.159 2.50475 288.066 2.26295 281.667 4.43915C279.815 5.08395 276.595 6.37354 274.502 7.30045C272.409 8.22735 270.034 9.27515 269.27 9.59754L267.861 10.202L268.666 9.27515C269.109 8.75124 270.397 7.30045 271.483 6.09145C274.623 2.70625 275.347 0.0464401 273.174 0.0464401C272.651 0.0464401 271 0.812141 269.431 1.69875ZM272.248 2.74654C271.886 3.39134 269.753 5.80934 267.539 8.18704C263.916 12.0961 263.192 13.3454 264.56 13.3454C264.842 13.3454 267.74 12.0961 271.081 10.5647C280.781 6.09145 288.187 3.63315 288.187 4.84215C288.187 6.53474 283.679 13.023 276.193 22.1711C273.657 25.2339 272.208 27.3295 272.449 27.5713C272.651 27.7728 273.496 27.7728 274.583 27.5713C276.555 27.128 277.32 27.2892 277.32 28.0549C277.32 28.8609 270.034 35.6313 263.313 41.0718C255.826 47.1168 255.222 48.487 261.018 45.9884C263.957 44.7391 266.05 44.457 266.05 45.263C266.05 47.5601 257.879 54.532 244.234 63.8816C241.417 65.816 239.002 67.5892 238.841 67.831C238.277 68.7579 239.686 68.7579 243.832 67.8713C246.206 67.3877 249.668 66.8638 251.56 66.7026L254.981 66.4205L253.653 67.831C249.829 71.861 238.639 76.8179 224.673 80.6464C215.979 83.0241 210.907 82.8226 205.192 79.7598C197.343 75.5686 192.875 66.5414 194.364 57.9172C195.25 52.7588 196.135 51.2677 204.266 40.3867C214.691 26.4832 221.292 18.9874 223.143 18.9874C224.351 18.9874 223.948 22.7353 222.177 27.9743C221.292 30.6341 220.567 32.8506 220.567 32.9312C220.567 33.8984 223.224 31.561 231.877 22.8965C242.222 12.62 248.863 6.65565 251.721 5.20484L253.29 4.39884L253.009 5.56754C252.526 7.54224 249.467 12.4588 246.045 16.8112C244.194 19.1083 242.705 21.1636 242.705 21.3651C242.705 22.5338 244.033 21.8487 249.024 18.0605C260.737 9.27515 271.765 1.65845 272.812 1.65845C272.892 1.65845 272.651 2.14204 272.248 2.74654Z" fill="#E76F51"/>
<path d="M224.391 39.0568C221.614 40.5882 217.186 43.6107 211.31 48.0034C205.272 52.517 202.455 55.0962 202.455 56.144C202.455 58.7232 210.988 71.0147 213.845 72.5461C214.731 73.0297 215.093 72.9894 217.025 72.1028C219.722 70.8132 226.645 65.9369 232.642 61.1009C238.559 56.3052 239.243 55.5798 238.921 54.3305C238.277 51.6707 228.013 37.8881 226.685 37.9284C226.524 37.9284 225.518 38.4523 224.391 39.0568ZM225.397 44.8197C224.673 52.8394 223.787 58.0784 223.022 58.4814C222.177 58.9247 217.508 58.3605 210.988 57.0306C203.622 55.5395 203.863 55.8619 207.969 52.5976C213.725 48.0034 225.357 39.7822 225.679 40.1046C225.719 40.1449 225.598 42.2808 225.397 44.8197ZM230.75 44.6585C233.729 48.6079 237.19 53.6857 236.949 53.8872C236.828 54.0081 226.484 52.4364 226.283 52.2752C226.001 51.9931 227.289 40.7494 227.571 40.7494C227.651 40.7494 229.06 42.5226 230.75 44.6585ZM232.24 54.7738L236.868 55.4992L233.326 58.4814C227.128 63.7204 216.824 70.9744 216.301 70.4505C216.18 70.3699 216.703 67.9922 217.428 65.1712L218.756 60.0934L221.251 60.1337C222.66 60.174 224.029 59.9725 224.351 59.7307C224.673 59.4889 225.115 58.0784 225.397 56.6679C225.961 53.6051 225.478 53.7663 232.24 54.7738ZM211.712 58.7232C214.691 59.3277 217.186 59.8113 217.226 59.8516C217.267 59.8516 216.623 62.3905 215.777 65.4533L214.288 71.0147L212.477 69.0803C210.666 67.1459 207.566 62.7935 205.473 59.1262L204.306 57.1515L205.312 57.3933C205.836 57.5142 208.734 58.1187 211.712 58.7232Z" fill="#E9C46A"/>
<path d="M207.526 74.5208C206.802 75.7298 211.108 77.4224 214.932 77.4224C218.756 77.4224 223.385 75.6492 222.338 74.6014C222.016 74.279 221.251 74.3596 219.44 74.9641C215.858 76.1731 213.886 76.0925 208.653 74.3999C208.17 74.2387 207.647 74.3193 207.526 74.5208Z" fill="black"/>
<path d="M142.362 14.7156C140.269 16.0052 136.767 18.4232 132.822 21.3651L131.454 22.4129L132.782 20.1158C133.587 18.6247 134.03 17.3754 133.949 16.6903C133.627 13.6678 130.206 15.9246 120.023 25.9996C117.004 28.9818 115.998 29.7476 116.28 28.9416C116.924 27.2892 116.803 24.7906 116.119 24.2264C115.072 23.3398 113.663 24.1458 110.886 27.128C107.425 30.8759 98.7708 42.4018 97.6438 44.7795C96.4363 47.399 96.4363 53.0813 97.6841 55.7411C98.8916 58.4009 101.91 61.504 104.607 62.7936C106.579 63.8011 107.304 63.922 110.484 63.8817C113.462 63.8414 114.951 63.5593 118.936 62.3503C121.593 61.504 125.577 59.9726 127.831 58.9248C135.881 55.056 137.894 51.1469 131.172 52.3559C129.965 52.5977 128.958 52.7186 128.918 52.6783C128.838 52.638 130.287 51.5096 132.098 50.22C140.671 44.0541 143.529 40.5077 140.832 39.2987C140.148 38.9762 140.269 38.7747 142.241 37.1628C143.489 36.1956 145.461 34.3417 146.709 33.0522C148.6 31.0774 148.882 30.5536 148.56 29.9087C148.319 29.5057 147.876 29.0625 147.514 28.9012C147.031 28.7401 147.634 27.7729 150.13 24.5891C153.712 20.1158 155.081 17.7784 154.879 16.4485C154.759 15.6425 154.557 15.5619 152.666 15.6425C151.418 15.6828 149.083 16.2873 146.91 17.1739C144.857 17.9396 143.126 18.5844 143.006 18.5844C142.885 18.5844 143.448 17.859 144.253 16.9321C145.702 15.3604 146.065 13.7887 145.099 13.4663C144.857 13.3857 143.609 13.9499 142.362 14.7156ZM140.591 18.5441C136.646 22.2114 137.169 22.8965 142.321 20.6397C146.829 18.7053 152.827 16.7306 153.189 17.0933C153.591 17.456 151.297 20.8009 147.393 25.6369C145.582 27.8535 144.092 29.9087 144.092 30.2311C144.092 30.6342 144.455 30.7147 145.501 30.5536C146.266 30.4326 146.91 30.4729 146.91 30.6744C146.91 31.1177 143.046 34.6238 138.779 38.0897C136.646 39.742 135.237 41.1928 135.237 41.6361C135.237 42.563 135.559 42.563 137.693 41.5555C143.569 38.8957 138.618 43.8526 128.274 51.026C126.06 52.5574 124.169 54.0485 124.088 54.2903C123.847 55.0963 124.933 55.2172 127.429 54.653C128.717 54.3709 130.609 54.0082 131.575 53.8873C133.144 53.6455 133.305 53.6858 132.822 54.25C131.333 56.0232 124.128 59.2069 116.763 61.3025C113.019 62.3906 111.691 62.5921 109.518 62.4309C105.01 62.1085 101.588 59.8114 99.3343 55.5396C98.0061 53.0813 98.0061 47.3587 99.2941 44.9004C101.226 41.2733 112.255 27.2892 114.146 26.0399C115.072 25.4354 115.112 25.4354 115.112 26.6041C115.112 27.2892 114.67 29.0221 114.146 30.5132C112.496 35.0672 113.422 35.0672 117.769 30.5938C125.537 22.6144 131.776 16.9724 132.299 17.4963C132.581 17.8187 130.126 21.6472 127.952 24.2668C127.067 25.3145 126.382 26.322 126.382 26.5639C126.382 27.4505 127.55 27.3295 128.838 26.2817C130.689 24.71 142.643 16.1664 142.885 16.2067C143.006 16.2067 141.959 17.2545 140.591 18.5441Z" fill="#E76F51"/>
<path d="M112.013 38.5732C107.062 41.9181 100.743 46.8347 100.461 47.5198C99.7368 49.293 107.223 59.6904 109.236 59.6904C110.685 59.6904 124.732 49.293 125.296 47.8019C125.658 46.9556 125.014 45.7869 122.156 41.7569C119.298 37.7269 117.568 35.9134 116.642 35.9134C116.28 35.9134 114.187 37.1224 112.013 38.5732ZM115.515 39.621C115.354 40.3464 114.79 42.5629 114.267 44.5376L113.341 48.1243L109.518 47.8825C107.384 47.7213 105.13 47.4795 104.486 47.278L103.279 46.9556L106.499 44.5376C110.443 41.5151 115.112 38.3314 115.515 38.3314C115.716 38.3314 115.716 38.9359 115.515 39.621ZM121.432 43.4495C122.76 45.4242 123.565 46.9959 123.444 47.3586C123.001 48.5273 110.202 58.0784 109.075 58.0784C108.552 58.0784 105.694 54.4917 103.883 51.5095C102.997 50.0184 102.232 48.7288 102.232 48.6482C102.232 48.5676 103.078 48.6885 104.164 48.89C105.211 49.0915 107.867 49.293 110.081 49.3333L114.106 49.4139L114.831 47.9228C115.233 47.1168 115.958 44.6182 116.4 42.3614L117.286 38.3314L118.212 39.218C118.775 39.7419 120.184 41.636 121.432 43.4495Z" fill="#E9C46A"/>
<path d="M372.511 36.7194C367.52 39.3389 356.21 47.1571 341.358 58.159C336.648 61.7054 332.704 64.5264 332.664 64.4458C332.583 64.3652 333.388 63.1964 334.435 61.8263C339.224 55.6604 344.095 47.4392 344.739 44.457C344.9 43.651 344.819 42.6434 344.537 41.9181C344.095 40.9106 343.813 40.7494 342.525 40.7494C338.701 40.7494 329.564 48.487 307.628 70.3296C300.021 77.8657 293.822 83.951 293.822 83.83C293.822 83.7092 294.265 82.2584 294.869 80.606C299.296 67.6295 297.807 60.8188 291.407 64.9294C286.135 68.3146 274.18 82.5002 258.362 104.222C256.269 107.083 253.613 110.63 252.445 112.04C249.91 115.224 247.535 119.939 246.086 124.775C245.08 128.039 244.999 129.006 244.999 134.447C244.999 141.781 245.724 144.965 248.742 150.97C254.257 161.972 264.641 169.306 277.078 170.918C282.794 171.684 287.584 170.999 298.854 167.856C322.118 161.287 338.258 153.912 345.544 146.497C348.321 143.716 348.844 142.305 347.395 141.499C345.705 140.613 338.339 141.298 329.283 143.152C327.19 143.555 325.419 143.877 325.378 143.796C325.298 143.716 327.431 142.144 330.168 140.29C347.315 128.563 360.235 118.085 364.099 112.846C365.91 110.388 366.272 108.252 365.186 106.882C364.501 106.076 364.059 105.914 362.368 105.955C361.241 105.955 359.309 106.317 358.061 106.761C356.814 107.164 355.848 107.486 355.888 107.446C355.968 107.406 359.229 104.705 363.173 101.481C377.945 89.3914 384.385 83.024 384.385 80.4045C384.385 78.309 382.775 77.3015 379.837 77.5433L377.502 77.7448L379.273 75.6895C392.717 59.7307 402.095 46.3108 402.095 42.9256C402.095 38.3314 391.026 41.0314 364.059 52.2752C363.817 52.3961 366.111 49.9781 369.13 46.9153C375.087 40.8703 376.858 38.4926 376.657 36.8C376.496 35.2686 375.329 35.2283 372.511 36.7194ZM374.443 38.7747C373.276 40.7494 368.406 45.8272 363.093 50.5826C358.504 54.6932 357.417 56.0634 358.826 56.0634C359.148 56.0634 362.529 54.7335 366.353 53.0812C381.728 46.5526 392.515 42.8853 397.587 42.4823C399.398 42.3211 400.485 42.4017 400.485 42.6434C400.485 45.9884 392.395 57.5545 378.025 74.7626C374.524 78.994 374.363 79.1955 374.483 80.9285C374.564 82.7017 375.127 83.4674 376.375 83.4674C377.744 83.4674 378.508 81.3717 377.462 80.324C376.697 79.5583 377.341 79.3165 380.038 79.2762C382.533 79.2359 382.574 79.2359 382.694 80.4045C382.815 81.412 382.211 82.1777 377.663 86.6511C372.914 91.3661 364.099 98.9426 354.6 106.519C350.011 110.146 349.488 110.75 350.092 111.355C350.414 111.677 351.46 111.395 354.077 110.186C360.798 107.043 364.26 106.559 364.26 108.695C364.26 110.025 363.696 111.033 361.603 113.531C357.176 118.77 341.72 130.78 325.338 141.701C320.267 145.086 319.019 146.335 320.75 146.335C321.192 146.335 323.688 145.852 326.304 145.288C336.004 143.192 346.55 142.023 346.55 143.031C346.55 143.756 341.358 148.35 338.299 150.365C330.168 155.685 315.718 161.488 297.968 166.485C286.255 169.79 282.23 170.274 275.509 169.105C268.586 167.896 262.669 164.914 257.517 160.078C253.814 156.612 251.681 153.63 249.547 148.995C247.092 143.676 246.529 140.975 246.569 134.245C246.609 129.127 246.73 127.959 247.696 124.775C249.064 120.342 251.359 115.788 253.975 112.564C255.062 111.234 258.523 106.6 261.663 102.328C276.193 82.5002 288.389 68.234 292.736 65.9369C294.949 64.7682 295.593 65.3324 295.754 68.5564C295.915 71.5788 294.587 77.0597 292.212 83.3867C290.522 87.8601 290.321 88.7064 291.005 88.7064C291.246 88.7064 298.008 82.1375 306.018 74.0775C327.27 52.7588 338.5 42.8853 342.324 42.2808C343.008 42.1599 343.129 42.3614 343.088 43.6107C343.008 46.7541 338.299 54.532 330.651 64.1234C323.728 72.7878 324.654 72.5461 338.822 61.9874C353.835 50.784 364.179 43.4898 369.694 40.1852C374.725 37.1627 375.53 36.9209 374.443 38.7747Z" fill="#E76F51"/>
<path d="M299.86 98.5395C295.593 100.434 285.45 106.076 275.911 111.798C263.112 119.455 257.195 123.727 257.195 125.258C257.195 126.306 259.248 131.102 262.468 137.469C267.418 147.343 272.087 154.395 274.905 156.249C276.153 157.095 276.515 157.136 278.205 156.773C282.271 155.886 297.968 147.061 311.653 137.993C319.663 132.674 322.802 130.094 322.802 128.885C322.802 125.782 307.668 99.95 304.609 97.7738C303.402 96.9678 303.362 96.9678 299.86 98.5395ZM302.516 100.272C302.396 100.917 301.631 104.826 300.866 109.058C298.491 121.551 296.398 130.376 295.191 132.714C294.668 133.721 294.386 133.842 292.695 133.842C289.274 133.842 280.298 131.545 266.291 127.112L259.127 124.815L260.254 123.848C266.251 118.891 299.699 99.3455 302.396 99.1843C302.597 99.1843 302.637 99.6679 302.516 100.272ZM306.501 102.569C310.929 108.816 321.353 127.354 320.79 127.958C320.548 128.16 300.343 123.203 299.981 122.8C299.86 122.679 300.584 118.286 301.631 113.007C302.637 107.728 303.603 102.65 303.724 101.683C303.885 100.756 304.126 99.9903 304.328 99.9903C304.489 99.9903 305.495 101.159 306.501 102.569ZM310.486 127.112L320.508 129.651L319.26 130.699C316.805 132.754 304.73 140.693 297.002 145.328C289.757 149.64 280.781 154.395 278.608 155C277.763 155.242 277.763 155.201 278.165 154.113C278.407 153.509 280.097 148.834 281.989 143.756C283.84 138.678 285.41 134.447 285.491 134.366C285.571 134.286 286.94 134.487 288.55 134.85C292.615 135.696 294.829 135.656 295.835 134.648C296.559 133.923 298.29 128.966 298.894 125.863C299.055 125.057 299.377 124.573 299.82 124.573C300.182 124.573 304.972 125.742 310.486 127.112ZM263.474 127.797C265.446 128.482 270.759 130.135 275.267 131.465C279.815 132.754 283.559 133.923 283.679 134.003C283.84 134.205 276.555 154.436 276.112 154.919C275.629 155.443 272.087 151.171 269.35 146.738C265.245 140.169 258.644 126.588 259.529 126.588C259.731 126.588 261.461 127.152 263.474 127.797Z" fill="#E9C46A"/>
<path d="M264.52 151.292C263.876 152.058 265.969 155.524 268.304 157.579C272.369 161.166 277.883 162.576 284.243 161.69C287.906 161.126 289.314 160.521 288.791 159.675C288.59 159.312 288.067 159.231 287.221 159.433C281.747 160.602 276.797 160.4 273.134 158.869C270.88 157.861 267.459 154.758 266.412 152.703C265.527 150.93 265.084 150.607 264.52 151.292Z" fill="black"/>
<path d="M81.584 71.8206C69.8712 74.6819 60.2917 83.83 57.1522 95.1946C56.2265 98.6604 56.0655 99.7888 52.121 132.835L49.1022 158.183L43.5075 170.314C36.665 185.104 36.021 187.038 36.021 193.889C36.0612 199.934 36.7455 202.957 39.241 208.196C42.5012 214.886 47.1702 219.52 54.1335 222.905C56.3472 223.993 59.4465 225.162 61.0565 225.484C64.3972 226.21 70.8372 226.331 74.2987 225.686C77.5992 225.081 82.389 223.187 85.287 221.293C86.6555 220.407 87.7422 219.842 87.7422 220.004C87.7422 220.165 87.38 221.454 86.897 222.905C84.8442 229.555 81.906 242.41 81.3022 247.488C80.6582 253.13 82.067 259.82 85.0052 264.737C85.7297 265.946 87.541 268.243 88.99 269.774L91.6867 272.595L90.922 275.819C89.795 280.454 88.3057 288.957 87.7825 293.43C87.541 295.526 87.219 297.944 87.1385 298.79C86.9372 300.322 86.9372 300.322 89.151 301.329C90.3585 301.893 91.3647 302.417 91.3647 302.498C91.3647 302.578 90.8817 303.908 90.3182 305.44C88.6277 309.994 86.6957 311.122 82.5097 309.994C79.1287 309.107 74.2585 309.188 71.9642 310.235C66.772 312.573 63.8337 317.086 64.8802 321.116C65.4437 323.373 66.933 324.622 68.6235 324.26C71.441 323.696 71.8032 323.776 72.5277 325.388C73.534 327.403 74.7817 327.967 76.8747 327.282C78.686 326.678 79.2897 326.96 80.0947 328.854C80.779 330.506 82.1877 331.03 84.2002 330.426C85.7297 329.982 85.8907 329.982 86.4945 330.869C88.668 333.972 88.829 334.053 92.049 333.488C93.6992 333.247 93.7395 333.247 94.464 334.778C95.4702 336.914 96.718 337.277 99.5757 336.39C100.823 335.987 102.031 335.342 102.232 334.939C102.433 334.536 104.969 328.532 107.787 321.56C110.644 314.628 116.118 301.571 119.942 292.584L126.905 276.222L129.964 275.497C134.191 274.489 142.361 271.709 146.91 269.653C153.591 266.711 162.607 261.311 162.607 260.263C162.607 259.981 162.325 258.893 162.003 257.845C161.561 256.354 161.52 255.871 161.923 255.75C169.41 252.969 170.697 253.291 173.273 258.41C176.574 264.938 181.645 268.082 187.602 267.235C190.38 266.832 191.708 266.067 193.117 264.011C194.485 261.956 194.284 260.666 192.392 259.135C190.822 257.845 190.259 256.314 191.185 255.75C191.748 255.387 191.668 253.009 191.104 252.284C190.822 251.921 190.098 251.357 189.494 250.994C188.206 250.188 188.126 249.544 189.011 247.811C189.856 246.158 189.454 244.788 187.723 243.781C186.194 242.854 186.194 243.015 186.999 239.066C187.24 237.776 187.119 237.574 185.509 236.164L183.738 234.673L184.423 232.819C184.946 231.409 185.026 230.723 184.704 230.038C184.181 228.91 181.042 226.935 179.754 226.935C179.23 226.935 173.153 228.749 166.189 230.925C153.148 235.036 143.81 237.655 143.448 237.333C143.368 237.212 145.259 232.053 147.715 225.887C150.17 219.681 152.786 212.83 153.551 210.614C156.006 203.239 157.214 195.219 156.811 188.932C156.529 184.499 156.288 184.741 160.313 185.386C161.561 185.587 162.325 185.547 162.567 185.265C162.768 185.023 163.251 182.162 163.613 178.857C164.217 174.021 164.459 172.933 164.982 172.933C165.344 172.933 169.128 173.296 173.354 173.82C177.62 174.303 181.203 174.586 181.324 174.465C181.484 174.344 182.652 165.196 183.94 154.153C185.268 143.071 186.838 130.135 187.401 125.379C188.568 116.191 188.77 111.315 188.246 107.567L187.924 105.229L200.321 112.685L212.718 120.1L213.523 119.092C214.65 117.682 225.397 99.4664 225.397 98.9828C225.397 98.4992 182.652 72.9893 181.847 72.9893C181.565 72.9893 179.834 75.4879 177.983 78.5104C176.171 81.5732 174.521 84.3136 174.32 84.636C174.038 85.0793 173.515 84.9181 171.623 83.7494C168.403 81.815 164.982 80.4448 160.957 79.4373C159.105 78.994 143.086 76.8984 125.376 74.8028C90.4792 70.6519 87.1787 70.4101 81.584 71.8206ZM96.5972 73.1908C99.6562 73.9162 102.635 75.0043 102.635 75.367C102.635 75.5282 101.95 75.8909 101.145 76.173C98.8512 76.979 94.5445 79.5984 91.8477 81.8553C87.1385 85.8047 82.8317 92.6557 81.262 98.7007C80.8192 100.434 79.5312 110.75 78.2835 122.518C76.1502 142.144 75.9892 143.434 74.9025 145.731C73.695 148.27 71.9642 150.244 69.5895 151.856C68.6637 152.461 65.0412 153.589 59.527 155C54.8177 156.209 50.9135 157.136 50.8732 157.095C50.8732 157.055 52.4027 143.756 54.375 127.596C58.1987 95.4767 58.3597 94.6304 61.62 88.7063C62.7872 86.5704 64.4375 84.5554 67.1745 81.8553C70.3945 78.6313 71.6422 77.7044 74.8622 76.0924C76.9552 75.0446 80.0545 73.8356 81.7047 73.3923C85.5285 72.4251 92.854 72.3445 96.5972 73.1908ZM131.896 77.2208C159.508 80.5254 160.152 80.606 164.74 82.2583C168.041 83.4673 172.67 86.0868 172.67 86.7316C172.67 86.9734 167.115 96.4842 160.353 107.849C148.439 127.918 147.996 128.603 146.547 129.006C141.395 130.376 138.095 134.971 138.055 140.734C138.055 143.192 138.256 144.159 139.101 145.811C142.643 152.985 151.941 154.798 157.978 149.519C160.152 147.585 161.802 143.917 161.802 140.975C161.802 139.686 161.601 137.872 161.359 136.945L160.957 135.253L170.858 118.528C176.332 109.34 180.881 101.723 180.921 101.643C181.001 101.562 182.088 102.086 183.336 102.811C185.952 104.302 186.234 104.867 186.838 109.541C187.24 112.604 187.039 114.821 183.698 142.789C181.766 159.272 180.116 172.772 180.076 172.853C179.955 173.054 117.366 165.558 117.044 165.317C116.923 165.196 118.292 152.38 120.143 136.865C123.967 105.189 124.128 102.328 122.599 96.2827C120.264 87.1346 115.193 80.5254 106.016 74.7222C105.372 74.3192 105.331 74.2386 105.935 74.2386C106.297 74.1983 117.97 75.5685 131.896 77.2208ZM205.272 88.5048C214.892 94.2274 222.942 99.0231 223.103 99.1843C223.304 99.3455 220.97 103.658 217.951 108.776L212.477 118.045L197.303 108.977C188.971 104.02 182.088 99.9097 182.048 99.8694C182.008 99.7888 182.893 98.1365 183.98 96.1618C185.067 94.1871 185.912 92.293 185.872 91.9706C185.59 90.6004 184.584 91.487 182.813 94.5498C181.806 96.323 176.051 106.156 169.973 116.433L158.904 135.132L159.588 137.671C160.675 141.66 159.79 145.046 156.932 147.867C154.839 149.922 153.108 150.567 149.727 150.567C147.191 150.567 146.427 150.406 144.857 149.479C140.268 146.779 138.417 141.137 140.631 136.462C141.878 133.762 144.334 131.626 147.03 130.82L149.204 130.175L165.666 102.489L182.128 74.7625L184.946 76.4148C186.516 77.3417 195.652 82.7822 205.272 88.5048ZM83.4757 163.261C100.3 165.276 114.106 166.969 114.186 167.049C114.267 167.09 109.88 176.721 104.486 188.408C93.6187 211.903 92.532 213.717 87.2592 217.908C81.5035 222.381 75.3452 224.517 68.06 224.517C59.849 224.517 53.0065 221.817 47.1702 216.336C38.919 208.518 35.4575 196.106 38.6372 185.628C39.1202 184.056 41.978 177.487 44.9565 170.999L50.4305 159.231L51.6782 159.433C52.3625 159.554 66.6915 161.287 83.4757 163.261ZM119.942 167.452C125.899 168.097 162.768 172.571 162.889 172.651C163.05 172.812 161.561 183.774 161.359 183.975C161.118 184.177 112.013 177.608 111.731 177.326C111.57 177.205 112.576 174.787 113.905 171.966C115.837 167.815 116.44 166.848 117.004 167.009C117.406 167.13 118.735 167.332 119.942 167.452ZM111.087 185.426C115.233 186.434 114.991 186.152 115.233 191.189C115.354 193.688 115.555 196.307 115.716 197.073C115.877 197.96 115.837 198.322 115.555 198.121C115.313 198 115.112 198.08 115.112 198.322C115.112 198.564 115.434 198.685 115.837 198.564C116.4 198.363 116.883 198.725 117.608 199.773L118.654 201.224L115.837 207.108C114.267 210.332 111.691 216.054 110.081 219.802C108.471 223.55 106.982 226.734 106.821 226.855C106.66 227.016 106.66 226.855 106.861 226.532C107.062 226.21 107.022 226.049 106.861 226.25C106.66 226.411 106.458 226.935 106.378 227.419C106.297 227.902 105.613 229.917 104.889 231.932C100.542 243.579 99.2537 247.246 96.9192 254.541C95.4702 258.974 93.7797 264.455 93.176 266.752L92.049 270.903L90.4792 269.371C87.9837 266.953 85.0052 262.117 83.838 258.571C82.9122 255.79 82.7512 254.662 82.7915 250.511C82.7915 245.473 83.2342 243.015 86.1725 231.167C88.9095 220.286 89.7145 218.029 91.566 216.054C94.7457 212.75 96.3557 209.848 102.192 197.194C106.7 187.482 108.149 184.661 108.632 184.781C108.994 184.902 110.081 185.184 111.087 185.426ZM119.338 187.602L121.351 188.126L121.23 191.713C121.15 195.098 120.304 198.846 119.54 199.33C119.338 199.451 118.614 198.604 117.93 197.436C116.803 195.421 116.722 195.018 116.722 191.149C116.722 188.892 116.843 187.038 117.044 187.038C117.205 187.038 118.252 187.28 119.338 187.602ZM130.206 190.464C133.305 191.27 137.209 192.277 138.86 192.68C140.51 193.083 142.683 193.688 143.69 194.01C144.696 194.292 147.634 195.098 150.25 195.743L154.96 196.912V198.121C154.96 199.733 153.269 207.148 152.142 210.412C148.962 219.641 121.27 286.7 112.295 306.81L111.449 308.704L108.954 307.777C107.585 307.253 106.499 306.649 106.539 306.487C106.579 306.286 106.096 306.084 105.533 306.084C104.929 306.044 101.83 304.956 98.6097 303.626C95.3897 302.296 91.888 300.845 90.761 300.442L88.7485 299.636L88.8692 297.42C89.795 277.23 103.319 235.076 118.735 204.367C122.156 197.557 122.76 195.662 122.76 191.753C122.76 188.65 122.8 188.57 123.685 188.731C124.168 188.852 127.107 189.617 130.206 190.464ZM181.967 229.595C183.175 230.361 183.537 230.804 183.336 231.288C182.37 233.585 182.249 234.149 182.491 235.116C182.611 235.721 183.376 236.607 184.141 237.131C185.55 238.018 185.952 239.267 185.107 240.113C184.906 240.315 184.664 241.121 184.664 241.846C184.624 242.934 184.946 243.458 186.314 244.627L188.005 246.078L187.361 247.649C186.475 249.785 186.878 251.397 188.609 252.405C190.098 253.291 190.219 253.775 189.535 255.75C188.85 257.604 189.373 259.095 190.983 260.062C192.593 260.989 192.714 261.593 191.587 263.447C190.058 265.865 184.946 266.55 181.364 264.817C179.673 264.011 176.292 261.069 176.292 260.425C176.292 260.263 177.298 259.82 178.506 259.417C180.357 258.853 180.881 258.49 181.404 257.362C182.008 256.072 181.967 255.83 178.305 243.619C176.252 236.768 174.481 230.965 174.4 230.683C174.199 230.2 177.942 228.588 179.432 228.588C179.915 228.547 181.082 229.031 181.967 229.595ZM154.316 238.824C154.678 240.033 154.879 241.242 154.758 241.443C154.638 241.685 154.678 241.846 154.919 241.846C155.121 241.846 155.402 242.249 155.563 242.733C155.684 243.257 157.012 247.327 158.461 251.841C159.91 256.354 161.037 260.102 160.957 260.183C160.876 260.263 159.186 261.351 157.173 262.601C150.13 267.074 139.665 271.507 131.252 273.683C129.481 274.127 127.952 274.489 127.831 274.489C127.63 274.489 128.435 272.434 130.005 269.049C130.407 268.162 131.293 265.986 132.017 264.213C132.701 262.44 133.788 259.82 134.432 258.369C135.076 256.918 136.163 254.299 136.847 252.526C137.572 250.753 138.538 248.375 139.061 247.287C139.544 246.158 140.47 243.942 141.073 242.33C142.361 239.066 141.677 239.469 149.325 237.454C153.631 236.325 153.511 236.285 154.316 238.824ZM78.0822 312.613C77.076 314.87 77.076 316.442 78.0017 317.57C78.4042 318.054 83.6367 320.552 90.5597 323.494C97.0802 326.275 102.554 328.652 102.675 328.814C102.836 328.975 102.474 330.264 101.87 331.675C100.904 334.053 100.703 334.335 99.0927 334.859C96.9595 335.544 96.4362 335.383 95.591 333.569C94.786 331.836 94.0212 331.594 91.244 331.917C89.1107 332.199 89.0705 332.159 88.5875 330.99C87.7422 328.975 86.7762 328.33 85.0455 328.693C82.1475 329.217 81.9865 329.176 81.2217 327.564C80.2557 325.549 79.008 324.985 76.8345 325.63C74.983 326.194 74.4195 325.912 73.6547 324.099C73.0107 322.487 71.3202 321.801 69.509 322.487C67.6575 323.131 67.0537 322.849 66.45 320.875C66.0475 319.424 66.0877 318.98 66.7317 317.489C68.6235 313.218 72.2057 310.961 77.3577 310.8L78.847 310.759L78.0822 312.613Z" fill="#2A9D8F"/>
<path d="M147.433 135.696C142.361 138.195 144.334 145.932 150.009 145.932C155.765 145.932 157.254 138.315 152.062 135.615C150.653 134.89 149.043 134.93 147.433 135.696ZM151.699 137.227C153.953 138.396 154.396 141.338 152.585 143.151C149.365 146.375 144.132 142.063 146.749 138.356C147.876 136.703 149.848 136.26 151.699 137.227Z" fill="#2A9D8F"/>
<path d="M196.417 173.739V178.575H193.197H189.977V194.856C189.977 205.294 190.138 211.259 190.38 211.42C190.661 211.581 190.782 206.181 190.782 195.542V179.381H202.656H214.53V195.38C214.53 205.455 214.691 211.984 214.972 212.951C215.576 215.208 217.87 217.545 220.124 218.23L221.976 218.754L222.097 238.985C222.137 251.962 222.338 259.175 222.58 259.175C222.861 259.175 222.982 251.962 222.982 238.663V218.15L221.493 217.868C219.199 217.465 216.985 215.853 216.099 213.918C215.415 212.347 215.335 211.057 215.335 195.38V178.575H212.316H209.297V173.739V168.903H202.857H196.417V173.739ZM208.492 174.142V178.575H202.857H197.222V174.142V169.709H202.857H208.492V174.142Z" fill="#E9C46A"/>
<path d="M169.047 198.524V207.994H164.418C161.601 207.994 159.79 208.155 159.79 208.397C159.79 208.639 161.722 208.8 164.821 208.8H169.852V199.33V189.859H179.713C186.033 189.859 189.575 189.698 189.575 189.456C189.575 189.214 185.872 189.053 179.311 189.053H169.047V198.524Z" fill="#E9C46A"/>
<path d="M220.969 194.695C221.291 194.897 225.155 195.098 229.704 195.098H237.874L237.955 214.321L238.076 233.585L243.308 233.706C247.977 233.786 248.702 233.706 249.869 232.98C251.922 231.731 252.364 230.119 252.364 224.316V219.278H264.238H276.112L276.192 231.449L276.313 243.66H280.338H284.363L284.484 219.963L284.564 196.307H292.212H299.859L299.94 214.926L300.061 233.585L306.984 233.706L313.947 233.786L314.027 240.96L314.148 248.093H323.003H331.858L331.939 247.085C331.939 246.521 331.979 242.249 332.019 237.574L332.059 229.111L334.032 228.588C336.688 227.902 339.425 226.129 340.914 224.074C343.007 221.172 343.329 219.278 343.329 209.929V201.546H355.686C364.058 201.546 367.922 201.425 367.64 201.143C367.359 200.861 362.851 200.781 354.962 200.821L342.726 200.942L342.524 210.614C342.323 219.601 342.243 220.407 341.438 221.938C339.667 225.283 336.527 227.54 333.066 228.023L331.254 228.265V237.857V247.488H323.003H314.752L314.671 240.315L314.551 233.182L307.628 233.061L300.664 232.98V214.241V195.501H292.212H283.759V219.278V243.055H280.338H276.917V230.764V218.472H264.238H251.559V224.275C251.559 229.595 251.479 230.119 250.674 231.167C249.225 233.021 247.695 233.424 242.906 233.101L238.679 232.859V213.556V194.292H229.543C223.465 194.292 220.567 194.453 220.969 194.695Z" fill="#E9C46A"/>
<path d="M31.5807 241.375C29.045 243.793 26.5897 250.08 25.664 256.528L25.181 259.873L24.2955 258.422C21.8402 254.352 17.292 254.432 15.7222 258.583C15.0782 260.236 15.0782 260.518 15.682 262.815C16.0442 264.185 16.4467 265.555 16.6077 265.918C16.809 266.442 16.487 266.643 15.1587 266.845C13.106 267.167 11.657 267.893 10.369 269.303C9.52375 270.23 9.36275 270.754 9.36275 272.93V275.509L7.7125 276.154C5.01575 277.162 2.43975 279.015 1.353 280.668C0.306498 282.36 -0.377752 284.819 0.225998 284.819C0.427248 284.819 0.708998 284.335 0.829748 283.69C1.4335 280.95 3.88875 278.532 7.83325 276.92L10.1677 275.993L10.047 273.817C9.92625 272.366 10.1275 271.197 10.53 270.391C11.2545 269.021 14.0317 267.49 15.843 267.49C17.9762 267.49 18.097 267.087 16.97 264.266C15.6417 261.001 15.8027 258.503 17.4127 257.132C19.7472 255.077 22.9672 256.528 24.376 260.276C24.7785 261.404 25.3017 262.331 25.503 262.371C25.7042 262.412 25.986 260.961 26.147 259.147C26.9117 249.959 30.8965 240.892 34.1567 240.892C36.0887 240.892 36.7327 242.383 36.6925 246.937C36.6522 251.007 36.2497 253.505 34.68 258.986C34.1567 260.88 33.7945 262.452 33.875 262.573C33.9555 262.654 35.0825 261.888 36.3302 260.88C40.8785 257.173 47.4795 254.755 49.2102 256.206C50.941 257.656 49.1297 260.88 43.7362 266.039C41.603 268.094 40.315 269.585 40.637 269.666C40.9187 269.787 42.4482 269.908 43.9777 270.028C48.6065 270.311 53.034 272.809 53.034 275.147C53.034 276.879 50.5385 278.854 46.3927 280.426L45.1852 280.869L47.3185 281.595C50.8605 282.763 52.39 284.899 51.907 287.962L51.746 289.252L53.7585 288.204C55.449 287.317 56.093 287.196 57.5017 287.438C59.635 287.801 61.889 289.856 61.889 291.428C61.889 292.556 62.1305 292.677 63.0965 292.073C63.499 291.79 63.5795 291.589 63.2575 291.347C63.016 291.186 62.4927 290.501 62.1305 289.775C60.601 286.753 57.22 285.866 53.356 287.438C52.7522 287.68 52.6315 287.519 52.6315 286.39C52.6315 284.416 51.263 282.441 49.4115 281.675C48.526 281.272 47.8015 280.909 47.8015 280.789C47.8015 280.668 48.6065 280.265 49.6127 279.862C51.5447 279.056 53.2755 277.282 53.678 275.751C54.4025 272.809 48.6467 269.142 43.213 269.102H41.6835L44.501 266.482C49.4517 261.888 51.8265 257.294 50.0152 255.803C48.1235 254.231 43.1325 255.4 38.383 258.543C36.8132 259.591 35.4045 260.477 35.2837 260.558C35.1227 260.639 35.3642 259.43 35.807 257.938C36.9742 253.667 37.8195 247.42 37.5377 244.881C36.9742 240.086 34.4787 238.635 31.5807 241.375Z" fill="#264653"/>
<path d="M196.417 252.727C196.417 252.969 198.711 253.13 202.454 253.13H208.492V271.87C208.492 284.081 208.613 290.609 208.894 290.609C209.176 290.609 209.297 283.96 209.297 271.467V252.324H202.857C198.832 252.324 196.417 252.486 196.417 252.727Z" fill="#E9C46A"/>
<path d="M277.803 268.162C277.28 270.177 275.227 272.313 273.255 272.877C272.49 273.119 266.613 273.28 260.133 273.28H248.34V286.62C248.34 295.365 248.461 299.838 248.742 299.677C248.984 299.516 249.145 294.68 249.145 286.539V273.643L261.139 273.724C271.926 273.804 273.255 273.764 274.623 273.079C276.434 272.233 278.004 270.298 278.366 268.525L278.648 267.235H300.101H321.595V273.28C321.595 277.028 321.756 279.325 321.997 279.325C322.239 279.325 322.4 276.907 322.4 272.877V266.429H300.303H278.205L277.803 268.162Z" fill="#E9C46A"/>
<path d="M185.67 288.957C183.376 290.407 181.122 295.203 179.955 301.168L179.311 304.674L178.506 303.505C176.654 300.765 173.636 300.402 172.428 302.78C171.784 304.069 171.784 307.535 172.509 309.832C172.75 310.719 172.67 310.759 170.617 310.759C167.397 310.759 164.499 312.25 163.412 314.386C162.929 315.353 162.607 316.602 162.688 317.328C162.808 318.456 162.647 318.618 161.48 318.98C159.508 319.544 157.173 322.003 156.368 324.421C156.006 325.549 155.765 326.798 155.885 327.161C156.087 328.007 156.167 327.766 156.932 324.945C157.576 322.567 159.87 320.109 162.003 319.544L163.654 319.101L163.613 316.965C163.613 315.273 163.815 314.668 164.579 313.822C166.109 312.21 167.88 311.565 171.019 311.565C172.589 311.565 173.877 311.484 173.877 311.404C173.877 311.323 173.595 310.477 173.273 309.55C172.468 307.293 172.509 303.948 173.314 302.78C174.602 300.885 177.137 302.135 178.788 305.439L179.713 307.333L180.035 305.117C181.082 297.903 183.135 292.221 185.429 290.206C187.079 288.715 188.126 288.675 189.011 290.004C190.017 291.576 189.575 298.588 188.166 303.263C187.602 305.198 187.2 306.89 187.28 307.011C187.401 307.092 188.367 306.527 189.454 305.681C193.157 302.86 198.228 300.966 200.402 301.691C201.489 302.014 201.529 303.586 200.402 305.359C199.557 306.769 193.72 312.371 193.117 312.371C192.956 312.371 192.795 312.532 192.795 312.734C192.795 312.895 194.123 313.177 195.773 313.298C198.752 313.499 201.931 314.588 203.34 315.877C205.232 317.57 203.501 320.149 199.637 321.439C198.55 321.801 197.625 322.245 197.625 322.406C197.625 322.567 198.389 322.889 199.355 323.131C202.213 323.897 203.058 324.824 203.058 327.242C203.058 328.451 203.219 329.216 203.461 329.136C203.702 329.096 203.863 328.169 203.823 327.161C203.823 325.066 203.058 323.977 200.885 322.849L199.476 322.164L200.965 321.68C202.978 320.995 204.87 319.061 204.87 317.65C204.87 315.353 201.368 313.258 196.498 312.573L194.405 312.29L196.538 310.558C201.489 306.447 203.3 302.739 201.046 301.248C199.235 300.039 194.405 301.409 190.178 304.311C189.172 304.996 188.367 305.52 188.367 305.439C188.367 305.359 188.81 303.505 189.373 301.329C190.983 294.921 190.621 289.239 188.568 288.433C187.522 288.03 187.039 288.151 185.67 288.957Z" fill="#264653"/>
</svg>
